<svg width="30" height="30" viewBox="0 0 30 30" fill="none" xmlns="http://www.w3.org/2000/svg">
<rect width="30" height="30" rx="3.75" fill="#1DA1F2"/>
<path d="M21.9654 10.6861C21.4531 10.9071 20.8956 11.0661 20.3214 11.1281C20.9176 10.7739 21.364 10.2143 21.577 9.55442C21.0176 9.88721 20.4047 10.1206 19.7656 10.2441C19.4985 9.95859 19.1755 9.7311 18.8166 9.57586C18.4577 9.42061 18.0707 9.34094 17.6797 9.3418C16.0977 9.3418 14.8253 10.6242 14.8253 12.1978C14.8253 12.4188 14.8521 12.6398 14.8956 12.8524C12.5268 12.7285 10.4141 11.5968 9.00949 9.86413C8.75356 10.3013 8.61944 10.799 8.62109 11.3055C8.62109 12.2966 9.125 13.1705 9.89342 13.6844C9.44058 13.6666 8.99834 13.5421 8.60268 13.3212V13.3563C8.60268 14.7441 9.58371 15.8943 10.8912 16.1588C10.6457 16.2225 10.3931 16.2552 10.1395 16.2559C9.95368 16.2559 9.7779 16.2375 9.60045 16.2123C9.96205 17.344 11.0151 18.166 12.269 18.1928C11.2879 18.9612 10.0592 19.4132 8.72489 19.4132C8.48549 19.4132 8.26451 19.4049 8.03516 19.3781C9.30078 20.19 10.8025 20.6588 12.4196 20.6588C17.6696 20.6588 20.5424 16.3094 20.5424 12.5343C20.5424 12.4104 20.5424 12.2866 20.534 12.1627C21.0898 11.7559 21.577 11.252 21.9654 10.6861Z" fill="white"/>
</svg>
