<svg width="31" height="30" viewBox="0 0 31 30" fill="none" xmlns="http://www.w3.org/2000/svg">
<rect x="0.714844" width="30" height="30" rx="3.75" fill="#3AAF85"/>
<path d="M14 8.57129C13.2902 8.57129 12.716 9.14718 12.716 9.857C12.716 10.1968 12.8516 10.525 13.091 10.766C13.2103 10.8855 13.352 10.9802 13.508 11.0449C13.664 11.1095 13.8312 11.1427 14 11.1427H15.284V9.857C15.284 9.14886 14.7098 8.57296 14 8.57129ZM14 11.9999H10.5731C9.86328 11.9999 9.28906 12.5758 9.28906 13.2856C9.28906 13.9954 9.86496 14.5713 10.5731 14.5713H13.9983C14.7081 14.5713 15.2824 13.9954 15.2824 13.2856C15.284 12.5758 14.7081 11.9999 14 11.9999ZM17.4252 14.5713C18.135 14.5713 18.7109 13.9954 18.7093 13.2856V9.857C18.7093 9.14718 18.135 8.57129 17.4252 8.57129C16.7154 8.57129 16.1412 9.14718 16.1412 9.857V13.2856C16.1412 13.9971 16.7154 14.5713 17.4252 14.5713ZM22.1362 13.2856C22.1362 12.5758 21.5603 11.9999 20.8521 11.9999C20.144 11.9999 19.5681 12.5758 19.5681 13.2856V14.5713H20.8521C21.5603 14.5713 22.1362 13.9954 22.1362 13.2856ZM20.8504 15.4284H17.4252C16.7154 15.4284 16.1412 16.0043 16.1412 16.7141C16.1412 17.054 16.2768 17.3821 16.5162 17.6232C16.6355 17.7426 16.7772 17.8374 16.9332 17.902C17.0892 17.9666 17.2564 17.9999 17.4252 17.9999H20.8504C21.5603 17.9999 22.1345 17.424 22.1345 16.7141C22.1362 16.0043 21.5603 15.4301 20.8504 15.4284ZM17.4252 18.857H16.1412V20.1427C16.1412 20.8525 16.7171 21.4284 17.4252 21.4284C18.135 21.4284 18.7109 20.8525 18.7093 20.1427C18.7109 19.4329 18.135 18.8587 17.4252 18.857ZM14 15.4284C13.2902 15.4284 12.716 16.0043 12.716 16.7141V20.1427C12.716 20.8525 13.2919 21.4284 14 21.4284C14.7098 21.4284 15.2857 20.8525 15.284 20.1427V16.7141C15.284 16.3743 15.1484 16.0462 14.909 15.8051C14.6678 15.5642 14.3409 15.4287 14 15.4284ZM9.28906 16.7141C9.28906 17.054 9.42467 17.3821 9.66406 17.6232C9.7834 17.7426 9.92511 17.8374 10.0811 17.902C10.2371 17.9666 10.4043 17.9999 10.5731 17.9999C11.2829 17.9999 11.8588 17.424 11.8571 16.7141V15.4284H10.5731C9.86496 15.4284 9.28906 16.0043 9.28906 16.7141Z" fill="#FFFEFE"/>
</svg>
