<svg width="31" height="30" viewBox="0 0 31 30" fill="none" xmlns="http://www.w3.org/2000/svg">
<rect x="0.285156" width="30" height="30" rx="3.75" fill="#3B5999"/>
<path d="M22.1852 7.5H8.38516C8.05328 7.5 7.78516 7.76812 7.78516 8.1V21.9C7.78516 22.2319 8.05328 22.5 8.38516 22.5H22.1852C22.517 22.5 22.7852 22.2319 22.7852 21.9V8.1C22.7852 7.76812 22.517 7.5 22.1852 7.5ZM20.4527 11.8781H19.2545C18.3152 11.8781 18.1333 12.3244 18.1333 12.9806V14.4262H20.3758L20.0833 16.6894H18.1333V22.5H15.7952V16.6913H13.8395V14.4262H15.7952V12.7575C15.7952 10.8206 16.9783 9.765 18.707 9.765C19.5358 9.765 20.2464 9.82688 20.4545 9.855V11.8781H20.4527Z" fill="white"/>
</svg>
