<svg width="31" height="30" viewBox="0 0 31 30" fill="none" xmlns="http://www.w3.org/2000/svg">
<rect x="0.429688" width="30" height="30" rx="3.75" fill="#CD201F"/>
<g clip-path="url(#clip0_2514_4966)">
<path d="M22.6166 11.3855C22.5312 11.0674 22.3638 10.7774 22.1311 10.5445C21.8984 10.3115 21.6086 10.1437 21.2907 10.0579C20.1205 9.74316 15.4297 9.74316 15.4297 9.74316C15.4297 9.74316 10.7388 9.74316 9.56864 10.0562C9.25059 10.1417 8.96064 10.3094 8.72791 10.5424C8.49518 10.7755 8.32786 11.0656 8.24275 11.3838C7.92969 12.5557 7.92969 14.9999 7.92969 14.9999C7.92969 14.9999 7.92969 17.4441 8.24275 18.6143C8.41518 19.2605 8.92411 19.7694 9.56864 19.9418C10.7388 20.2566 15.4297 20.2566 15.4297 20.2566C15.4297 20.2566 20.1205 20.2566 21.2907 19.9418C21.9369 19.7694 22.4442 19.2605 22.6166 18.6143C22.9297 17.4441 22.9297 14.9999 22.9297 14.9999C22.9297 14.9999 22.9297 12.5557 22.6166 11.3855ZM13.9397 17.2432V12.7566L17.8237 14.9831L13.9397 17.2432Z" fill="#FFFEFE"/>
</g>
<defs>
<clipPath id="clip0_2514_4966">
<rect width="15" height="15" fill="white" transform="translate(7.92969 7.5)"/>
</clipPath>
</defs>
</svg>
