<svg width="31" height="30" viewBox="0 0 31 30" fill="none" xmlns="http://www.w3.org/2000/svg">
<rect x="0.855469" width="30" height="30" rx="3.75" fill="#E4405F"/>
<path d="M15.8543 12.7679C14.6255 12.7679 13.6227 13.7707 13.6227 14.9995C13.6227 16.2283 14.6255 17.2311 15.8543 17.2311C17.0831 17.2311 18.0859 16.2283 18.0859 14.9995C18.0859 13.7707 17.0831 12.7679 15.8543 12.7679ZM22.5474 14.9995C22.5474 14.0754 22.5557 13.1597 22.5038 12.2372C22.452 11.1658 22.2075 10.2149 21.4241 9.43144C20.6389 8.64628 19.6897 8.40354 18.6182 8.35164C17.6941 8.29974 16.7784 8.30812 15.856 8.30812C14.9319 8.30812 14.0161 8.29974 13.0937 8.35164C12.0223 8.40354 11.0714 8.64796 10.2879 9.43144C9.50273 10.2166 9.25998 11.1658 9.20809 12.2372C9.15619 13.1614 9.16456 14.0771 9.16456 14.9995C9.16456 15.922 9.15619 16.8394 9.20809 17.7618C9.25998 18.8332 9.5044 19.7841 10.2879 20.5676C11.073 21.3528 12.0223 21.5955 13.0937 21.6474C14.0178 21.6993 14.9335 21.6909 15.856 21.6909C16.7801 21.6909 17.6958 21.6993 18.6182 21.6474C19.6897 21.5955 20.6406 21.3511 21.4241 20.5676C22.2092 19.7824 22.452 18.8332 22.5038 17.7618C22.5574 16.8394 22.5474 15.9236 22.5474 14.9995ZM15.8543 18.4331C13.9542 18.4331 12.4207 16.8996 12.4207 14.9995C12.4207 13.0994 13.9542 11.5659 15.8543 11.5659C17.7544 11.5659 19.2879 13.0994 19.2879 14.9995C19.2879 16.8996 17.7544 18.4331 15.8543 18.4331ZM19.4285 12.2272C18.9849 12.2272 18.6266 11.8689 18.6266 11.4253C18.6266 10.9817 18.9849 10.6234 19.4285 10.6234C19.8722 10.6234 20.2304 10.9817 20.2304 11.4253C20.2305 11.5306 20.2099 11.635 20.1696 11.7323C20.1294 11.8297 20.0703 11.9181 19.9958 11.9926C19.9213 12.0671 19.8329 12.1262 19.7355 12.1664C19.6382 12.2067 19.5339 12.2273 19.4285 12.2272Z" fill="#FFFEFE"/>
</svg>
