<svg width="31" height="30" viewBox="0 0 31 30" fill="none" xmlns="http://www.w3.org/2000/svg">
<rect x="0.570312" width="30" height="30" rx="3.75" fill="#0077B5"/>
<g clip-path="url(#clip0_2514_4963)">
<path d="M21.7321 8.30371H9.41071C9.1144 8.30371 8.875 8.54311 8.875 8.83943V21.1609C8.875 21.4572 9.1144 21.6966 9.41071 21.6966H21.7321C22.0285 21.6966 22.2679 21.4572 22.2679 21.1609V8.83943C22.2679 8.54311 22.0285 8.30371 21.7321 8.30371ZM12.8477 19.7161H10.8605V13.3244H12.8477V19.7161ZM11.8549 12.4505C11.6271 12.4505 11.4044 12.3829 11.215 12.2564C11.0256 12.1298 10.878 11.9499 10.7908 11.7395C10.7036 11.529 10.6808 11.2974 10.7253 11.074C10.7697 10.8506 10.8794 10.6453 11.0405 10.4843C11.2016 10.3232 11.4068 10.2135 11.6302 10.169C11.8536 10.1246 12.0852 10.1474 12.2957 10.2346C12.5061 10.3218 12.686 10.4694 12.8126 10.6588C12.9391 10.8482 13.0067 11.0709 13.0067 11.2987C13.005 11.9348 12.4894 12.4505 11.8549 12.4505ZM20.2874 19.7161H18.3019V16.6073C18.3019 15.8657 18.2885 14.9131 17.269 14.9131C16.2361 14.9131 16.077 15.72 16.077 16.5537V19.7161H14.0932V13.3244H15.9983V14.1982H16.0251C16.2896 13.696 16.9375 13.1653 17.9051 13.1653C19.9174 13.1653 20.2874 14.4895 20.2874 16.2105V19.7161Z" fill="#FFFEFE"/>
</g>
<defs>
<clipPath id="clip0_2514_4963">
<rect width="15" height="15" fill="white" transform="translate(8.07031 7.5)"/>
</clipPath>
</defs>
</svg>
