<svg width="31" height="30" viewBox="0 0 31 30" fill="none" xmlns="http://www.w3.org/2000/svg">
<rect x="0.144531" width="30" height="30" rx="3.75" fill="#222222"/>
<g clip-path="url(#clip0_2514_4965)">
<path d="M15.1378 7.70606C10.9978 7.70438 7.64453 11.0559 7.64453 15.1927C7.64453 18.4639 9.74219 21.2446 12.6635 22.2658C13.0569 22.3645 12.9967 22.085 12.9967 21.8941V20.5967C10.7249 20.8629 10.6328 19.3595 10.4805 19.1084C10.1724 18.5827 9.4442 18.4488 9.66183 18.1977C10.1791 17.9315 10.7065 18.2647 11.3175 19.167C11.7595 19.8216 12.6217 19.7111 13.0586 19.6023C13.154 19.2088 13.3583 18.8573 13.6395 18.5844C11.2857 18.1625 10.3047 16.7261 10.3047 15.0186C10.3047 14.1899 10.5776 13.4282 11.1133 12.8138C10.7718 11.8009 11.1451 10.9337 11.1953 10.8048C12.168 10.7178 13.1791 11.5013 13.2578 11.5632C13.8103 11.4142 14.4414 11.3355 15.1479 11.3355C15.8577 11.3355 16.4905 11.4176 17.048 11.5682C17.2372 11.4242 18.1747 10.7513 19.0787 10.8333C19.1272 10.9622 19.4922 11.8093 19.1708 12.8087C19.7132 13.4248 19.9894 14.1932 19.9894 15.0236C19.9894 16.7345 19.0017 18.1726 16.6412 18.5878C16.8434 18.7866 17.0039 19.0237 17.1134 19.2853C17.2229 19.5469 17.2792 19.8276 17.279 20.1112V21.9946C17.2924 22.1452 17.279 22.2942 17.5301 22.2942C20.495 21.2948 22.6295 18.494 22.6295 15.1943C22.6295 11.0559 19.2746 7.70606 15.1378 7.70606Z" fill="#FFFEFE"/>
</g>
<defs>
<clipPath id="clip0_2514_4965">
<rect width="15" height="15" fill="white" transform="translate(7.64453 7.5)"/>
</clipPath>
</defs>
</svg>
