<svg width="30" height="30" viewBox="0 0 30 30" fill="none" xmlns="http://www.w3.org/2000/svg">
<rect width="30" height="30" rx="3.75" fill="#5E72E4"/>
<path fill-rule="evenodd" clip-rule="evenodd" d="M23.8929 15C23.8929 18.9332 20.8652 22.1592 17.0134 22.4747L17.0357 22.5H6.75L8.94328 14.1257C9.37637 10.3955 12.5465 7.5 16.3929 7.5C20.535 7.5 23.8929 10.8579 23.8929 15ZM20.8929 15C20.8929 17.3599 19.1786 19.2857 16.7652 19.4848C16.7489 19.4864 16.7273 19.4901 16.7002 19.4947C16.4651 19.5351 15.7797 19.6035 14.4347 19.0271L10.6071 19.5L12.1071 16.2857C11.0357 13.2857 13.6071 10.5 16.3929 10.5C18.8781 10.5 20.8929 12.5147 20.8929 15Z" fill="white"/>
</svg>
